<svg width="55" height="47" viewBox="0 0 55 47" fill="none" xmlns="http://www.w3.org/2000/svg">
<path d="M32.6309 22.9541C32.3964 20.0142 28.585 15.301 27.6598 14.1782C23.7736 9.46764 13.1277 0.720147 11.3598 0.00775146C10.8676 0.753702 10.3883 6.63613 10.5867 12.4153C8.35497 11.7855 6.70049 11.8991 5.25732 12.325C8.89872 14.9474 9.80585 16.1476 12.1845 22.6753C14.5631 29.2029 20.7455 34.0324 22.6603 35.1113C22.6603 35.1113 18.0963 30.5813 16.5243 26.0103C14.8105 21.026 15.2229 9.37988 15.2229 9.37988C15.2229 9.37988 21.7403 14.5938 23.5571 16.7645C23.5571 16.7645 26.6779 20.2207 27.4536 21.6042C28.4664 23.3877 29.1417 24.9596 28.8246 26.3662C28.2371 29.1154 25.3147 28.4494 28.1494 28.6662C30.7419 28.6636 32.9893 27.2002 32.6309 22.9541Z" fill="white"/>
<path d="M23.3741 22.9541C23.6112 20.0142 27.4227 15.301 28.3453 14.1782C32.2315 9.46764 42.8827 0.720147 44.6505 0.00775146C45.1427 0.753702 45.604 6.63613 45.4081 12.4153C47.6424 11.7855 49.2943 11.8991 50.7427 12.325C47.1013 14.9474 46.1916 16.1476 43.8156 22.6779C41.4396 29.2083 35.2545 34.0349 33.3319 35.1113C33.3319 35.1113 37.8959 30.5813 39.4681 26.0103C41.1817 21.026 40.7695 9.37988 40.7695 9.37988C40.7695 9.37988 34.2571 14.5938 32.4429 16.7645C32.4429 16.7645 29.322 20.2207 28.5464 21.6042C27.5335 23.3877 26.8583 24.9596 27.1753 26.3662C27.2515 26.8558 27.4554 27.3165 27.7663 27.7018C28.0771 28.087 28.4839 28.3831 28.9458 28.5603L29.0643 28.6017C28.6598 28.659 28.2512 28.6813 27.8429 28.6687C25.2606 28.6636 23.0288 27.2002 23.3741 22.9541Z" fill="white"/>
<path d="M39.0247 40.5369H39.6818V41.2003H39.0247V40.5369Z" fill="white"/>
<path d="M44.2692 37.1685C43.8163 36.7609 43.2229 36.546 42.6147 36.5696L42.6276 36.5747C42.0043 36.5747 41.4064 36.8228 40.9657 37.2643C40.5249 37.7058 40.2773 38.3045 40.2773 38.9288C40.2773 39.5532 40.5249 40.1519 40.9657 40.5934C41.4064 41.0349 42.0043 41.2827 42.6276 41.2827C42.9547 41.2873 43.2794 41.2257 43.5823 41.1014C43.8853 40.9773 44.1601 40.7932 44.3903 40.56L44.0501 40.1031C43.6749 40.4734 43.1722 40.6861 42.6456 40.6969C41.6353 40.6969 40.9574 39.8658 40.9574 38.8901C40.9459 38.663 40.9808 38.436 41.0605 38.2231C41.1403 38.0102 41.2629 37.8157 41.4208 37.6524C41.5784 37.4891 41.7682 37.3599 41.978 37.2731C42.1879 37.1863 42.4134 37.1436 42.6404 37.1477C43.1223 37.1552 43.5865 37.3314 43.9521 37.646L44.2692 37.1685Z" fill="white"/>
<path d="M35.6824 40.1935C35.9974 40.4912 36.4091 40.6653 36.8419 40.684C37.2672 40.684 37.628 40.4465 37.628 40.0129C37.628 39.563 37.169 39.3624 36.6701 39.1443C36.0758 38.8847 35.4245 38.6001 35.4245 37.8396C35.4245 37.1298 36.0355 36.5696 36.8936 36.5696C37.3652 36.5537 37.8254 36.7168 38.1821 37.0265L37.8908 37.5556C37.6138 37.3126 37.2615 37.1732 36.8936 37.1606C36.4091 37.1606 36.0689 37.4652 36.0689 37.8265C36.0689 38.2449 36.503 38.4275 36.9859 38.6307C37.5907 38.8855 38.2724 39.1723 38.2724 39.9947C38.2724 40.6969 37.7311 41.2853 36.829 41.2853C36.2674 41.2927 35.7254 41.0775 35.3214 40.6866L35.6824 40.1935Z" fill="white"/>
<path fill-rule="evenodd" clip-rule="evenodd" d="M18.4984 36.5696C18.804 36.5657 19.1073 36.6233 19.3904 36.7386C19.6735 36.8542 19.9307 37.025 20.1469 37.2415C20.363 37.458 20.5337 37.7156 20.6489 37.9991C20.7641 38.2827 20.8215 38.5865 20.8177 38.8926C20.8177 39.5129 20.5717 40.1077 20.1339 40.5461C19.696 40.9848 19.1021 41.2311 18.4829 41.2311C17.8636 41.2311 17.2698 40.9848 16.8319 40.5461C16.3941 40.1077 16.148 39.5129 16.148 38.8926C16.1449 38.5842 16.2037 38.278 16.3211 37.9927C16.4384 37.7074 16.612 37.4485 16.8312 37.2317C17.0506 37.0152 17.3112 36.8447 17.5976 36.7309C17.884 36.6171 18.1903 36.5624 18.4984 36.5696ZM18.4984 40.6994C18.7277 40.6938 18.9536 40.6424 19.1628 40.5479C19.372 40.4536 19.5601 40.3183 19.7163 40.1498C19.8724 39.9813 19.9933 39.7833 20.0718 39.5676C20.1503 39.3516 20.1849 39.1222 20.1734 38.8926C20.1861 38.6646 20.1521 38.4362 20.0737 38.2215C19.9952 38.0071 19.8738 37.8109 19.7171 37.6447C19.5603 37.4788 19.3713 37.3465 19.1618 37.2561C18.9522 37.1657 18.7265 37.1192 18.4984 37.1192C18.2702 37.1192 18.0444 37.1657 17.8349 37.2561C17.6254 37.3465 17.4364 37.4788 17.2796 37.6447C17.1228 37.8109 17.0015 38.0071 16.923 38.2215C16.8446 38.4362 16.8106 38.6646 16.8232 38.8926C16.8132 39.1215 16.8488 39.35 16.928 39.5648C17.0071 39.7797 17.1282 39.9765 17.2841 40.1439C17.44 40.3116 17.6277 40.4462 17.8362 40.5402C18.0447 40.6342 18.2698 40.6858 18.4984 40.6917V40.6994Z" fill="white"/>
<path d="M2.03858 36.6472H1.36853L0.992279 41.2002H1.6314L1.85044 38.3299C1.86333 38.0512 1.86333 37.646 1.86333 37.646H1.87622C1.87622 37.646 2.01795 38.0718 2.12104 38.3299L3.02302 40.382H3.58997L4.49709 38.3299C4.60792 38.0769 4.74192 37.6588 4.74192 37.6588H4.7548C4.7548 37.6588 4.73678 38.0512 4.7548 38.3299L4.9816 41.2002H5.61296L5.24445 36.6472H4.57699L3.53327 39.1094C3.43019 39.3624 3.3065 39.7237 3.3065 39.7237H3.29361C3.29361 39.7237 3.17249 39.3675 3.0694 39.1094L2.03858 36.6472Z" fill="white"/>
<path d="M8.58948 38.6784H6.70822V39.2463H8.58948V38.6784Z" fill="white"/>
<path d="M9.82135 36.6472H12.3263V37.1993H10.4579V38.6964H12.0505V39.2463H10.4579V41.1951H9.82135V36.6472Z" fill="white"/>
<path d="M13.8158 36.6472H13.1767V41.2002H15.8517V40.6452H13.8158V36.6472Z" fill="white"/>
<path d="M25.3327 39.987L24.4462 36.6472H23.8896L22.9824 39.987C22.918 40.24 22.8845 40.4724 22.8845 40.4724H22.8716C22.8527 40.3093 22.8252 40.1472 22.7892 39.987L21.9825 36.6472H21.3254L22.4851 41.2002H23.2273L24.0133 38.2446C24.0906 37.9557 24.1473 37.5995 24.1473 37.5995H24.155C24.155 37.5995 24.2143 37.9557 24.2916 38.2446L25.0776 41.2002H25.8172L27.008 36.6472H26.3507L25.5131 39.987C25.4727 40.1462 25.4451 40.3085 25.4307 40.4724C25.4307 40.4724 25.3972 40.2451 25.3327 39.987Z" fill="white"/>
<path d="M27.848 36.6472H30.4894V37.1993H28.4845V38.6268H30.1158V39.1818H28.4845V40.6452H30.5899V41.2002H27.848V36.6472Z" fill="white"/>
<path fill-rule="evenodd" clip-rule="evenodd" d="M32.93 36.6472H31.5383V41.1874H32.1776V39.3806H33.149L34.1102 41.1874H34.8292L33.8654 39.4191C33.8258 39.3467 33.7801 39.2776 33.7289 39.2126C33.9678 39.1107 34.1725 38.9417 34.318 38.726C34.4636 38.5102 34.5438 38.2572 34.5492 37.9968C34.5548 37.7366 34.4852 37.4803 34.3486 37.2587C34.2123 37.0373 34.0151 36.8598 33.7803 36.7479C33.5057 36.6616 33.2172 36.6274 32.93 36.6472ZM33.4054 38.7845C33.3033 38.8238 33.1938 38.8405 33.0845 38.8333H32.1698V37.1994H32.9042C33.1174 37.1796 33.3321 37.2153 33.5278 37.3026C33.6476 37.3745 33.7451 37.4788 33.8089 37.6034C33.8726 37.7279 33.9004 37.8679 33.8886 38.0073C33.8986 38.1165 33.8847 38.2264 33.8482 38.3299C33.8114 38.4332 33.7531 38.5274 33.6764 38.6058C33.6001 38.6843 33.5078 38.7452 33.4054 38.7845Z" fill="white"/>
<path fill-rule="evenodd" clip-rule="evenodd" d="M47.2584 36.5696C47.5652 36.564 47.8699 36.6202 48.1546 36.735C48.4393 36.8495 48.6979 37.0201 48.9155 37.2368C49.133 37.4534 49.3048 37.7117 49.4208 37.996C49.5367 38.2806 49.5946 38.5855 49.5907 38.8926C49.5907 39.5129 49.3447 40.1077 48.907 40.5461C48.4691 40.9848 47.8751 41.2311 47.2559 41.2311C46.6367 41.2311 46.0427 40.9848 45.605 40.5461C45.1671 40.1077 44.921 39.5129 44.921 38.8926C44.9179 38.5852 44.9763 38.2801 45.093 37.9958C45.2095 37.7112 45.3818 37.4531 45.5999 37.2366C45.8177 37.0201 46.0769 36.8493 46.3618 36.7347C46.6467 36.6202 46.9514 36.5642 47.2584 36.5696ZM47.2584 40.6994C47.4878 40.6938 47.7138 40.6424 47.9229 40.5479C48.1322 40.4537 48.3202 40.3183 48.4763 40.1498C48.6326 39.9813 48.7535 39.7833 48.8319 39.5676C48.9103 39.3516 48.9451 39.1222 48.9335 38.8926C48.9463 38.6646 48.9124 38.4363 48.8337 38.2215C48.7553 38.0071 48.6339 37.8109 48.4773 37.6447C48.3205 37.4788 48.1315 37.3465 47.9219 37.2561C47.7123 37.1657 47.4865 37.1192 47.2584 37.1192C47.0304 37.1192 46.8046 37.1657 46.595 37.2561C46.3854 37.3465 46.1964 37.4788 46.0398 37.6447C45.883 37.8109 45.7616 38.0071 45.6832 38.2215C45.6048 38.4363 45.5708 38.6646 45.5834 38.8926C45.5734 39.1215 45.6089 39.3501 45.6881 39.5648C45.7673 39.7797 45.8884 39.9765 46.0442 40.1439C46.2 40.3116 46.3878 40.4462 46.5963 40.5402C46.8048 40.6342 47.0298 40.6858 47.2584 40.6917V40.6994Z" fill="white"/>
<path d="M51.4152 36.6472H50.7453L50.3586 41.2002H50.9978L51.2169 38.3299C51.2298 38.0512 51.2298 37.646 51.2298 37.646C51.2298 37.646 51.3843 38.0718 51.4874 38.3299L52.3895 40.382H52.9565L53.8634 38.3299C53.9717 38.0769 54.1082 37.6588 54.1082 37.6588H54.1214C54.1214 37.6588 54.1031 38.0512 54.1214 38.3299L54.3479 41.2002H54.9794L54.611 36.6472H53.9408L52.91 39.1094C52.8068 39.3624 52.6832 39.7237 52.6832 39.7237C52.6832 39.7237 52.562 39.3675 52.4589 39.1094L51.4152 36.6472Z" fill="white"/>
<path fill-rule="evenodd" clip-rule="evenodd" d="M31.9196 46.0785V44.1505H31.6054V43.8382H31.9196V43.7298C31.9093 43.5901 31.9268 43.4496 31.9711 43.3166C32.0153 43.1838 32.0855 43.061 32.1775 42.9554C32.3251 42.8168 32.5213 42.7418 32.7237 42.7464C32.8428 42.7464 32.9605 42.7682 33.0716 42.8108L33.0176 43.1283C32.9364 43.0926 32.8484 43.0749 32.76 43.0767C32.4121 43.0767 32.3244 43.3838 32.3244 43.7272V43.8484H32.8654V44.1505H32.3244V46.0862L31.9196 46.0785ZM27.4381 42.7798H27.0311V46.0785H27.4381V42.7798ZM16.3104 42.9244C16.0632 42.9231 15.8165 42.9447 15.5734 42.9888L15.5759 46.0503C15.7837 46.0757 15.9929 46.0878 16.2022 46.0862C16.7124 46.0862 17.0655 45.9935 17.2845 45.7947C17.3682 45.7136 17.4343 45.6157 17.4786 45.5078C17.523 45.4 17.5446 45.2841 17.5423 45.1675C17.5379 44.9844 17.4719 44.8082 17.3549 44.6677C17.2379 44.5273 17.0769 44.4304 16.898 44.3932C17.0469 44.348 17.1779 44.2571 17.2726 44.1335C17.3674 44.01 17.4211 43.8597 17.4263 43.7039C17.431 43.5978 17.41 43.4922 17.3651 43.3959C17.3203 43.2999 17.2528 43.2159 17.1686 43.1517C16.9184 42.9765 16.6143 42.8959 16.3104 42.9244ZM16.3439 44.2794H15.978V43.2755C16.0953 43.2541 16.2144 43.2444 16.3336 43.2469C16.7434 43.2469 17.0217 43.3967 17.0217 43.7632C17.0217 44.0575 16.7691 44.2794 16.3439 44.2794ZM16.3156 45.7998C16.2026 45.8029 16.0897 45.796 15.978 45.779V44.5866H16.3104C16.7511 44.5866 17.1196 44.7363 17.1196 45.1906C17.1196 45.645 16.7331 45.7998 16.3156 45.7998ZM17.9442 45.8204V46.0785L19.8771 46.0631V45.7249H18.5215L18.7638 45.503C19.39 44.8886 19.7946 44.4394 19.7946 43.8821C19.7995 43.7614 19.7786 43.6409 19.7333 43.529C19.6881 43.417 19.6195 43.316 19.5322 43.2328C19.4449 43.1494 19.3408 43.0857 19.227 43.0459C19.1131 43.006 18.9921 42.9911 18.872 43.0019C18.5605 43.0006 18.2585 43.1095 18.019 43.3091L18.1478 43.598C18.325 43.4411 18.5507 43.3499 18.787 43.3399C18.867 43.3302 18.9482 43.3386 19.0246 43.3648C19.1009 43.3908 19.1705 43.4334 19.2281 43.4899C19.2857 43.5464 19.33 43.6152 19.3575 43.691C19.3851 43.767 19.3953 43.8482 19.3874 43.9286C19.3822 44.3852 19.0369 44.7751 18.2638 45.5081L17.9442 45.8204ZM20.4672 42.9888C20.7104 42.9447 20.9571 42.9231 21.2043 42.9244C21.5081 42.8959 21.8122 42.9765 22.0624 43.1517C22.1467 43.2159 22.2141 43.2999 22.259 43.3959C22.3038 43.4922 22.3248 43.5978 22.3201 43.7039C22.315 43.8597 22.2612 44.01 22.1665 44.1335C22.0718 44.2571 21.9407 44.348 21.7918 44.3932C21.9707 44.4304 22.1318 44.5273 22.2488 44.6677C22.3657 44.8082 22.4318 44.9844 22.4361 45.1675C22.4389 45.2841 22.4175 45.4002 22.3731 45.5081C22.3288 45.6162 22.2624 45.7138 22.1784 45.7947C21.9619 45.9935 21.6088 46.0862 21.0986 46.0862C20.8893 46.0878 20.6801 46.0757 20.4723 46.0503L20.4672 42.9888ZM20.8692 44.2794H21.2378C21.663 44.2794 21.9155 44.0575 21.9155 43.7632C21.9155 43.3967 21.6372 43.2469 21.2274 43.2469C21.1074 43.2446 20.9874 43.2541 20.8692 43.2755V44.2794ZM20.8692 45.779C20.9818 45.796 21.0956 45.8027 21.2094 45.7998C21.6269 45.7998 22.0109 45.645 22.0109 45.1906C22.0109 44.7363 21.6449 44.5866 21.2043 44.5866H20.8692V45.779ZM23.9127 44.6254V44.3233H22.7685V44.6254H23.9127ZM24.405 44.5635V44.5632C24.405 44.2768 24.405 44.0472 24.3844 43.8305H24.7529L24.7709 44.2149C24.8515 44.0765 24.9682 43.9627 25.1085 43.8859C25.2488 43.8092 25.4074 43.7719 25.5672 43.7788C26.111 43.7788 26.5182 44.2381 26.5182 44.9223C26.5182 45.73 26.026 46.1301 25.4874 46.1301C25.3513 46.1373 25.2158 46.1086 25.0945 46.0464C24.9732 45.9843 24.8705 45.8913 24.7967 45.7765V46.9897H24.405V44.5635ZM24.807 45.1647C24.8081 45.2204 24.8151 45.2759 24.8276 45.3301C24.8611 45.467 24.9395 45.5887 25.0502 45.6758C25.1609 45.7629 25.2976 45.8101 25.4384 45.8101C25.8713 45.8101 26.1213 45.4565 26.1213 44.9402C26.1213 44.491 25.8842 44.104 25.4538 44.104C25.3081 44.1086 25.168 44.162 25.056 44.2555C24.9439 44.349 24.8663 44.4774 24.8354 44.6202C24.8195 44.6749 24.8099 44.7312 24.807 44.7879V45.1647ZM29.3685 46.0785L29.3374 45.7947H29.322C29.243 45.9013 29.1394 45.9876 29.0201 46.0459C28.9008 46.1045 28.7694 46.1332 28.6364 46.1301C28.5482 46.1371 28.4593 46.1253 28.3757 46.096C28.2921 46.0664 28.2155 46.02 28.1507 45.9591C28.0859 45.8985 28.0347 45.825 27.9997 45.7433C27.965 45.6617 27.9475 45.5736 27.9486 45.485C27.9486 44.9402 28.4305 44.6433 29.2988 44.6485V44.6022C29.3071 44.5324 29.2996 44.4615 29.2765 44.3952C29.2536 44.3287 29.2158 44.2684 29.1661 44.2188C29.1165 44.169 29.0563 44.1312 28.99 44.1084C28.9237 44.0852 28.8532 44.0775 28.7835 44.086C28.5768 44.0863 28.3741 44.1443 28.1985 44.2537L28.1057 43.9956C28.3286 43.8628 28.5835 43.7943 28.8427 43.7968C29.5308 43.7968 29.6984 44.2666 29.6984 44.7183V45.5571C29.6946 45.7377 29.7067 45.9182 29.7344 46.0965L29.3685 46.0785ZM29.3014 44.9248C28.8555 44.9248 28.3505 44.9944 28.3505 45.4411C28.3464 45.4929 28.3533 45.5448 28.3711 45.5939C28.3888 45.6427 28.4168 45.6871 28.4533 45.7241C28.4899 45.7611 28.5338 45.7898 28.5822 45.8081C28.6308 45.8266 28.6827 45.8343 28.7344 45.8307C28.8535 45.8345 28.9705 45.7999 29.0682 45.732C29.1661 45.6642 29.2397 45.5666 29.2783 45.4539C29.2921 45.4123 29.2999 45.3689 29.3014 45.325V44.9248ZM30.8476 43.8305V43.1851L30.4328 43.2986V43.8382H30.0849V44.1505H30.4328V45.3712C30.4105 45.5795 30.4665 45.7883 30.5899 45.9573C30.6483 46.0187 30.7193 46.0662 30.7982 46.0965C30.8772 46.1268 30.9618 46.1391 31.0461 46.1327C31.1695 46.1363 31.2925 46.1181 31.4095 46.0785L31.3915 45.7713C31.3138 45.7906 31.2343 45.8001 31.1544 45.7998C30.9276 45.7998 30.8476 45.6398 30.8476 45.3609V44.1505H31.4326V43.8305H30.8476ZM35.1493 45.3799C35.1997 45.2338 35.219 45.0787 35.2054 44.9248C35.2183 44.7759 35.1995 44.6259 35.1506 44.4846C35.1015 44.3436 35.0236 44.2142 34.9215 44.105C34.8194 43.9961 34.6955 43.9098 34.5582 43.8518C34.4206 43.7937 34.2722 43.7655 34.1231 43.7683C33.5021 43.7683 33.0099 44.2098 33.0099 44.9636C32.9976 45.1118 33.0166 45.2613 33.0652 45.402C33.1141 45.5425 33.1917 45.6714 33.293 45.7803C33.3943 45.8892 33.5175 45.9758 33.6543 46.0341C33.7909 46.0926 33.9385 46.1219 34.0871 46.1199C34.2414 46.1235 34.3946 46.0942 34.5368 46.0343C34.6793 45.9745 34.8073 45.8854 34.9128 45.7726C35.0185 45.6599 35.0989 45.5261 35.1493 45.3799ZM34.1051 45.8127C33.7057 45.8127 33.4221 45.4411 33.4221 44.9479L33.4247 44.9582C33.4247 44.5324 33.6335 44.0755 34.1154 44.0755C34.5973 44.0755 34.7881 44.5583 34.7881 44.9402C34.7881 45.4462 34.5044 45.8127 34.1051 45.8127ZM35.7184 44.5324C35.7184 44.2743 35.7184 44.0395 35.7004 43.8305H36.0586V44.2717H36.0766C36.1152 44.134 36.1962 44.0123 36.3083 43.9237C36.4204 43.8351 36.5575 43.7842 36.7002 43.7788C36.7385 43.7781 36.7768 43.7832 36.8136 43.7943V44.1787C36.7678 44.1687 36.7213 44.1643 36.6745 44.1659C36.5364 44.1715 36.4052 44.2268 36.3049 44.3218C36.2044 44.4166 36.1417 44.5445 36.128 44.6821C36.1165 44.745 36.1103 44.809 36.11 44.8732V46.0708H35.7184V44.5324ZM37.2543 44.4394L37.2492 46.0785H37.6485V44.7235C37.647 44.6552 37.6573 44.5868 37.6794 44.5221C37.7118 44.4086 37.7789 44.3082 37.8715 44.235C37.964 44.1618 38.0772 44.1194 38.1949 44.1143C38.5043 44.1143 38.664 44.375 38.664 44.7312V46.0785H39.0607V44.6898C39.0615 44.6207 39.0728 44.5519 39.0944 44.4859C39.1245 44.3816 39.187 44.2897 39.2726 44.2229C39.3583 44.1561 39.4627 44.1181 39.5712 44.1143C39.9008 44.1143 40.0582 44.3749 40.0582 44.8062V46.0785H40.4575V44.7545C40.4575 43.9748 40.0168 43.7788 39.7206 43.7788C39.5416 43.7719 39.3657 43.8276 39.2233 43.9363C39.1173 44.0146 39.0294 44.115 38.9653 44.2304C38.9211 44.0976 38.836 43.9823 38.7221 43.9011C38.6082 43.8199 38.4714 43.777 38.3315 43.7788C38.187 43.7745 38.0443 43.8112 37.9195 43.8841C37.7946 43.9571 37.6927 44.0637 37.6254 44.1918H37.6125L37.5919 43.8305H37.2363C37.2543 44.0162 37.2543 44.207 37.2543 44.4394Z" fill="white"/>
</svg>
